<svg width="127" height="82" viewBox="0 0 127 82" fill="none" xmlns="http://www.w3.org/2000/svg">
<path d="M14.432 3.864C14.9867 4.90933 15.1147 6.232 14.816 7.832H14.784C14.0373 7.96 13.2373 8.04533 12.384 8.088C11.5307 8.10933 10.7307 8.01333 9.984 7.8C10.112 7.224 9.99467 6.744 9.632 6.36C9.26933 5.976 8.832 5.73067 8.32 5.624C7.808 5.51733 7.30667 5.57067 6.816 5.784C6.34667 5.99733 6.06933 6.40267 5.984 7C5.94133 7.14933 5.92 7.29867 5.92 7.448C5.94133 7.576 5.96267 7.71467 5.984 7.864C6.15467 8.376 6.432 8.71733 6.816 8.888C7.2 9.05867 7.616 9.176 8.064 9.24C9.19467 9.368 10.24 9.73067 11.2 10.328C12.1813 10.9253 12.9813 11.6827 13.6 12.6C13.984 13.0907 14.272 13.624 14.464 14.2C14.656 14.7547 14.7627 15.3307 14.784 15.928C14.8267 16.5253 14.784 17.1333 14.656 17.752C14.5493 18.3493 14.368 18.9253 14.112 19.48C13.856 20.1413 13.5147 20.7067 13.088 21.176C12.6613 21.6453 12.1707 22.0293 11.616 22.328C11.0827 22.6267 10.496 22.8507 9.856 23C9.23733 23.128 8.59733 23.1813 7.936 23.16C6.99733 23.1387 6.05867 22.9787 5.12 22.68C4.20267 22.36 3.38133 21.9227 2.656 21.368C1.93067 20.8133 1.35467 20.1413 0.928 19.352C0.501333 18.5413 0.32 17.624 0.384 16.6V16.504V16.408C1.13067 16.3013 1.952 16.28 2.848 16.344C3.744 16.3867 4.55467 16.3973 5.28 16.376C5.32267 17.0587 5.58933 17.5707 6.08 17.912C6.592 18.2533 7.12533 18.424 7.68 18.424C8.256 18.4027 8.74667 18.2107 9.152 17.848C9.57867 17.4853 9.728 16.9307 9.6 16.184C9.536 15.672 9.344 15.2667 9.024 14.968C8.704 14.648 8.32 14.392 7.872 14.2C7.44533 14.008 6.976 13.8693 6.464 13.784C5.952 13.6773 5.472 13.5813 5.024 13.496C4.59733 13.4107 4.20267 13.272 3.84 13.08C3.47733 12.888 3.14667 12.664 2.848 12.408C1.86667 11.4693 1.22667 10.4347 0.928 9.304C0.650667 8.17333 0.64 7.07467 0.896 6.008C1.152 4.94133 1.632 3.97067 2.336 3.096C3.06133 2.22133 3.936 1.57067 4.96 1.144C5.472 0.930666 6.03733 0.791999 6.656 0.727999C7.27467 0.642665 7.89333 0.621332 8.512 0.664C9.152 0.685333 9.77067 0.770665 10.368 0.919998C10.9867 1.06933 11.552 1.26133 12.064 1.496C13.088 2.02933 13.8773 2.81867 14.432 3.864ZM26.7553 6.968C27.2886 6.98933 27.8966 7.02133 28.5793 7.064C28.6006 7.192 28.6113 7.32 28.6113 7.448C28.6326 7.576 28.6433 7.704 28.6433 7.832V8.152C28.5793 10.456 28.5899 12.728 28.6753 14.968C28.7606 17.1867 28.7286 19.4373 28.5793 21.72C28.5793 21.9973 28.5686 22.2747 28.5473 22.552C28.5473 22.8293 28.4193 22.9893 28.1633 23.032H27.7793C27.4379 23.032 27.0859 23.0213 26.7233 23C26.3819 22.9573 26.0406 22.936 25.6993 22.936C25.4646 22.936 25.2299 22.9573 24.9953 23C24.7819 23.0213 24.5579 23.032 24.3233 23.032C24.1739 22.9893 24.0673 22.904 24.0033 22.776C23.9606 22.648 23.9392 22.4987 23.9392 22.328C23.9392 22.0933 23.9606 21.9013 24.0033 21.752C24.0459 21.6027 24.0673 21.4213 24.0673 21.208C23.5553 21.72 22.9046 22.1573 22.1153 22.52C21.3473 22.8827 20.5899 23.064 19.8433 23.064C19.0113 23.064 18.2966 22.776 17.6993 22.2C17.1233 21.624 16.6433 20.9093 16.2593 20.056C15.8753 19.2027 15.5873 18.2747 15.3953 17.272C15.2246 16.2693 15.1393 15.3413 15.1393 14.488C15.1393 13.4213 15.2779 12.44 15.5553 11.544C15.8326 10.648 16.2059 9.88 16.6753 9.24C17.1659 8.57867 17.7419 8.06667 18.4033 7.704C19.0646 7.32 19.7686 7.11733 20.5153 7.096C20.8993 7.096 21.2513 7.10667 21.5713 7.128C21.9126 7.128 22.2219 7.18133 22.4993 7.288C22.7766 7.37333 23.0219 7.52267 23.2353 7.736C23.4486 7.928 23.6299 8.20533 23.7793 8.568C23.7579 8.22667 23.7686 7.93867 23.8113 7.704C23.8753 7.448 23.9073 7.192 23.9073 6.936C23.9073 6.91467 23.9713 6.904 24.0993 6.904C24.2486 6.88267 24.4086 6.88267 24.5793 6.904C24.7499 6.904 24.9206 6.904 25.0913 6.904C25.2619 6.904 25.3793 6.904 25.4433 6.904C25.8059 6.92533 26.2433 6.94667 26.7553 6.968ZM20.1633 12.024C19.6726 12.4293 19.3739 12.8987 19.2673 13.432C19.1819 13.7093 19.1286 13.9973 19.1073 14.296C19.0859 14.5733 19.0753 14.8507 19.0753 15.128C19.0753 16.088 19.3206 16.9093 19.8113 17.592C20.3233 18.2533 21.0273 18.584 21.9233 18.584C22.4566 18.584 22.8513 18.4987 23.1073 18.328C23.3846 18.136 23.5766 17.88 23.6833 17.56C23.8113 17.2187 23.8753 16.8133 23.8753 16.344C23.8966 15.8533 23.9073 15.3093 23.9073 14.712C23.9073 13.9653 23.8966 13.3787 23.8753 12.952C23.8753 12.504 23.8219 12.1627 23.7153 11.928C23.6299 11.6933 23.4699 11.544 23.2353 11.48C23.0219 11.416 22.6913 11.384 22.2433 11.384C21.3686 11.384 20.6753 11.5973 20.1633 12.024ZM34.126 7.928C34.126 8.16267 34.1367 8.42933 34.158 8.728C34.2647 8.664 34.3927 8.58933 34.542 8.504C34.7127 8.41867 34.8513 8.33333 34.958 8.248C35.406 7.928 35.9073 7.672 36.462 7.48C37.0167 7.288 37.582 7.18133 38.158 7.16C38.7553 7.13867 39.3313 7.20267 39.886 7.352C40.4407 7.50133 40.942 7.768 41.39 8.152C41.6033 8.344 41.7633 8.74933 41.87 9.368C41.998 9.96533 42.0727 10.6907 42.094 11.544C42.1367 12.3973 42.1473 13.336 42.126 14.36C42.126 15.3627 42.1153 16.3867 42.094 17.432C42.0727 18.456 42.0513 19.448 42.03 20.408C42.0087 21.368 42.0193 22.2107 42.062 22.936C41.3153 23.0427 40.6433 23.0853 40.046 23.064C39.47 23.064 38.8087 23.064 38.062 23.064C38.0193 22.5733 37.998 22.0187 37.998 21.4C37.998 20.7813 37.998 20.1413 37.998 19.48C38.0193 18.8187 38.0193 18.1573 37.998 17.496C37.998 16.8347 37.9767 16.216 37.934 15.64C37.9127 15.384 37.8913 15.1067 37.87 14.808C37.8487 14.488 37.806 14.1787 37.742 13.88C37.6993 13.5813 37.6247 13.3147 37.518 13.08C37.4327 12.8453 37.3047 12.664 37.134 12.536C37.1127 12.5147 37.0913 12.504 37.07 12.504C37.0487 12.504 37.0273 12.4933 37.006 12.472C36.8353 12.3867 36.5793 12.3227 36.238 12.28C35.918 12.216 35.598 12.2373 35.278 12.344C34.958 12.4293 34.67 12.6213 34.414 12.92C34.158 13.1973 34.0087 13.624 33.966 14.2C33.9233 14.9467 33.9127 15.6827 33.934 16.408C33.9553 17.112 33.9767 17.8267 33.998 18.552C34.0407 19.256 34.062 19.96 34.062 20.664C34.062 21.368 34.0193 22.072 33.934 22.776V22.904C33.5713 23.0107 33.2513 23.0747 32.974 23.096C32.718 23.1173 32.4513 23.1173 32.174 23.096C31.8967 23.096 31.5873 23.0853 31.246 23.064C30.9047 23.0427 30.478 23.0533 29.966 23.096C29.966 20.472 29.934 17.848 29.87 15.224C29.8273 12.6 29.8487 9.88 29.934 7.064C30.19 7.08533 30.4033 7.10667 30.574 7.128C30.7447 7.128 30.9047 7.128 31.054 7.128C31.2033 7.128 31.3633 7.128 31.534 7.128C31.7047 7.10667 31.918 7.08533 32.174 7.064C32.2593 7.064 32.4087 7.05333 32.622 7.032C32.8353 6.98933 33.0487 6.95733 33.262 6.936C33.4753 6.91467 33.6673 6.91467 33.838 6.936C34.0087 6.936 34.094 6.968 34.094 7.032C34.1367 7.39467 34.1473 7.69333 34.126 7.928ZM51.5963 1.848C51.6176 1.61333 51.6389 1.28267 51.6603 0.855999V0.504C51.6603 0.482665 51.7989 0.461332 52.0763 0.439999C52.3749 0.397333 52.7269 0.375999 53.1323 0.375999C53.5589 0.354666 54.0069 0.354666 54.4763 0.375999C54.9456 0.375999 55.3509 0.407999 55.6923 0.471998V2.584C55.6923 6.14667 55.7456 9.66667 55.8523 13.144C55.9589 16.6213 55.9696 19.896 55.8843 22.968C55.2229 22.968 54.4976 22.9787 53.7083 23C52.9189 23.0427 52.2043 23.0213 51.5642 22.936C51.5429 22.8933 51.5323 22.8187 51.5323 22.712C51.5323 22.4987 51.5216 22.328 51.5003 22.2C51.5003 22.072 51.5003 21.8907 51.5003 21.656C51.4576 21.5493 51.4043 21.4747 51.3403 21.432C51.2976 21.368 51.2443 21.4 51.1803 21.528C50.8603 22.168 50.4336 22.584 49.9003 22.776C49.3669 22.9467 48.8016 22.9893 48.2043 22.904C46.9883 22.8187 46.0283 22.5093 45.3243 21.976C44.6203 21.4213 44.0869 20.728 43.7243 19.896C43.3829 19.0427 43.1483 18.0933 43.0203 17.048C42.9136 16.0027 42.8496 14.9467 42.8283 13.88C42.8283 13.1333 42.8709 12.408 42.9563 11.704C43.0629 11 43.2123 10.36 43.4043 9.784C43.6176 9.18667 43.8843 8.68533 44.2043 8.28C44.5456 7.85333 44.9509 7.55467 45.4203 7.384C45.9963 7.17067 46.6256 7.04267 47.3083 7C48.0123 6.936 48.6736 6.936 49.2923 7C49.9109 7.04267 50.4336 7.13867 50.8603 7.288C51.2869 7.43733 51.5216 7.608 51.5642 7.8C51.5429 6.79733 51.5323 5.98667 51.5323 5.368C51.5323 4.74933 51.5323 4.25867 51.5323 3.896C51.5323 3.512 51.5323 3.224 51.5323 3.032C51.5536 2.81867 51.5642 2.62667 51.5642 2.456C51.5856 2.264 51.5963 2.06133 51.5963 1.848ZM47.6283 11.224C47.1163 11.608 46.8069 12.1733 46.7003 12.92C46.5936 13.2187 46.5296 13.528 46.5083 13.848C46.4869 14.168 46.4763 14.4773 46.4763 14.776C46.4763 15.3093 46.5403 15.832 46.6683 16.344C46.7963 16.8347 46.9883 17.2827 47.2443 17.688C47.5003 18.072 47.8096 18.3813 48.1723 18.616C48.5349 18.8507 48.9403 18.968 49.3883 18.968C49.9216 18.968 50.3376 18.8507 50.6363 18.616C50.9563 18.3813 51.1909 18.0613 51.3403 17.656C51.5109 17.2507 51.6069 16.7707 51.6283 16.216C51.6709 15.64 51.6923 15.0107 51.6923 14.328C51.6923 13.496 51.6709 12.8453 51.6283 12.376C51.6069 11.8853 51.5323 11.512 51.4043 11.256C51.2763 11 51.0736 10.84 50.7963 10.776C50.5403 10.6907 50.1883 10.648 49.7403 10.648C48.8656 10.648 48.1616 10.84 47.6283 11.224ZM61.4728 7.8C61.4941 7.864 61.5048 7.97067 61.5048 8.12C61.5901 8.07733 61.7821 7.992 62.0808 7.864C62.4008 7.736 62.7101 7.61867 63.0088 7.512C63.4141 7.384 63.8728 7.288 64.3848 7.224C64.8968 7.13867 65.3768 7.08533 65.8248 7.064C66.2728 7.04267 66.6461 7.04267 66.9448 7.064C67.2648 7.064 67.4248 7.07467 67.4248 7.096C67.4248 7.82133 67.4141 8.46133 67.3928 9.016C67.3928 9.57067 67.3928 10.072 67.3928 10.52C67.3928 10.9467 67.3928 11.3413 67.3928 11.704C67.3928 12.0667 67.4034 12.408 67.4248 12.728L67.1368 12.632C67.0301 12.5893 66.9128 12.5573 66.7848 12.536C66.6781 12.4933 66.5714 12.4507 66.4648 12.408C66.2088 12.344 65.9421 12.2907 65.6648 12.248C65.4088 12.2053 65.2701 12.184 65.2488 12.184C64.6728 12.12 64.1394 12.088 63.6488 12.088C63.1794 12.088 62.7634 12.1627 62.4008 12.312C62.0594 12.4613 61.7928 12.696 61.6008 13.016C61.4088 13.336 61.3234 13.7947 61.3448 14.392C61.3661 15.1387 61.3874 15.8427 61.4088 16.504C61.4301 17.1653 61.4408 17.8373 61.4408 18.52C61.4408 19.1813 61.4408 19.864 61.4408 20.568C61.4621 21.2507 61.4728 21.9867 61.4728 22.776V22.904C61.1101 23.0107 60.7794 23.0747 60.4808 23.096C60.1821 23.1173 59.8728 23.1173 59.5528 23.096C59.2328 23.096 58.8808 23.0853 58.4968 23.064C58.1341 23.0427 57.6968 23.0533 57.1848 23.096C57.1848 20.472 57.1528 17.848 57.0888 15.224C57.0461 12.6 57.0674 9.88 57.1528 7.064C57.4088 7.08533 57.6221 7.10667 57.7928 7.128C57.9634 7.128 58.1234 7.128 58.2728 7.128C58.4221 7.128 58.5821 7.128 58.7528 7.128C58.9234 7.10667 59.1368 7.08533 59.3928 7.064C59.4781 7.064 59.6274 7.05333 59.8408 7.032C60.0754 7.01067 60.3101 6.98933 60.5448 6.968C60.8008 6.94667 61.0141 6.94667 61.1848 6.968C61.3768 6.968 61.4728 6.98933 61.4728 7.032C61.4728 7.20267 61.4728 7.33067 61.4728 7.416C61.4728 7.50133 61.4728 7.576 61.4728 7.64C61.4728 7.68267 61.4728 7.736 61.4728 7.8ZM67.902 9.368C68.03 8.96267 68.126 8.64267 68.19 8.408C68.3393 8.088 68.574 7.81067 68.894 7.576C69.2353 7.34133 69.6193 7.14933 70.046 7C70.494 6.82933 70.9633 6.712 71.454 6.648C71.966 6.584 72.478 6.552 72.99 6.552C73.4167 6.59467 73.822 6.60533 74.206 6.584C74.6113 6.54133 75.038 6.54133 75.486 6.584C76.1687 6.62667 76.8193 6.76533 77.438 7C78.0567 7.21333 78.59 7.53333 79.038 7.96C79.3367 8.152 79.5713 8.46133 79.742 8.888C79.9127 9.31467 80.0407 9.816 80.126 10.392C80.2113 10.9467 80.2647 11.5653 80.286 12.248C80.3073 12.9093 80.3287 13.592 80.35 14.296C80.3287 14.9147 80.2967 15.6187 80.254 16.408C80.2327 17.1973 80.1793 17.9547 80.094 18.68C80.03 19.4053 79.934 20.056 79.806 20.632C79.6993 21.208 79.5393 21.6027 79.326 21.816C78.9633 22.328 78.4833 22.6907 77.886 22.904C77.31 23.1173 76.6807 23.2453 75.998 23.288C75.3153 23.352 74.6113 23.352 73.886 23.288C73.1607 23.2453 72.4993 23.224 71.902 23.224C70.814 23.032 69.8967 22.5627 69.15 21.816C68.574 21.304 68.1793 20.664 67.966 19.896C67.7527 19.128 67.6247 18.328 67.582 17.496C67.5393 16.6427 67.5287 15.7893 67.55 14.936C67.5927 14.0827 67.582 13.304 67.518 12.6C67.518 12.216 67.5287 11.8427 67.55 11.48C67.5713 11.096 67.614 10.7013 67.678 10.296C67.6993 10.0613 67.774 9.752 67.902 9.368ZM73.278 11.48C72.83 11.608 72.4673 11.8427 72.19 12.184C72.062 12.2693 71.966 12.4827 71.902 12.824C71.8167 13.5067 71.774 14.1893 71.774 14.872C71.774 15.5333 71.7527 16.2373 71.71 16.984C71.6887 17.4747 71.8167 17.8587 72.094 18.136C72.3713 18.392 72.702 18.5733 73.086 18.68C73.4913 18.7653 73.9073 18.7867 74.334 18.744C74.7607 18.68 75.1127 18.5733 75.39 18.424C75.7527 18.2533 75.998 17.9013 76.126 17.368C76.2113 16.6853 76.2753 16.0027 76.318 15.32C76.382 14.616 76.35 13.9547 76.222 13.336C76.1153 12.5893 75.806 12.0453 75.294 11.704C74.782 11.3627 74.11 11.288 73.278 11.48ZM7.04 26.44C9.36533 26.4187 11.6267 26.5253 13.824 26.76C13.8667 27.464 13.8773 28.2747 13.856 29.192C13.856 30.1093 13.8027 30.952 13.696 31.72C13.2907 31.6347 12.7893 31.6027 12.192 31.624C11.5947 31.6453 10.7947 31.6773 9.792 31.72H9.728H9.696C9.696 31.7413 9.68533 31.7627 9.664 31.784C9.664 31.784 9.664 31.7947 9.664 31.816C9.64267 31.9227 9.62133 32.0933 9.6 32.328C9.6 32.5413 9.6 32.8933 9.6 33.384C9.6 33.8533 9.6 34.4827 9.6 35.272C9.62133 36.04 9.64267 37.0427 9.664 38.28C9.68533 39.496 9.70667 40.968 9.728 42.696C9.74933 44.4027 9.78133 46.4187 9.824 48.744V48.776V48.808C9.44 48.872 9.01333 48.9147 8.544 48.936C8.096 48.936 7.63733 48.936 7.168 48.936C6.72 48.936 6.272 48.936 5.824 48.936C5.376 48.936 4.96 48.968 4.576 49.032C4.55467 48.9467 4.55467 48.5627 4.576 47.88C4.59733 47.1973 4.608 46.184 4.608 44.84C4.62933 43.4747 4.61867 41.736 4.576 39.624C4.55467 37.512 4.48 34.9627 4.352 31.976L4.32 31.944C4.064 31.816 3.744 31.7413 3.36 31.72C2.976 31.6773 2.592 31.656 2.208 31.656C1.824 31.6347 1.472 31.624 1.152 31.624C0.832 31.624 0.608 31.6027 0.48 31.56C0.437333 31.4747 0.394667 31.2613 0.352 30.92C0.330667 30.5787 0.309333 30.1733 0.288 29.704C0.288 29.2133 0.288 28.6907 0.288 28.136C0.288 27.5813 0.309333 27.048 0.352 26.536C0.352 26.5147 0.341333 26.504 0.32 26.504C0.32 26.504 0.32 26.4933 0.32 26.472C2.496 26.4507 4.736 26.44 7.04 26.44ZM23.4428 32.968C23.9761 32.9893 24.5841 33.0213 25.2668 33.064C25.2881 33.192 25.2988 33.32 25.2988 33.448C25.3201 33.576 25.3308 33.704 25.3308 33.832V34.152C25.2668 36.456 25.2774 38.728 25.3628 40.968C25.4481 43.1867 25.4161 45.4373 25.2668 47.72C25.2668 47.9973 25.2561 48.2747 25.2348 48.552C25.2348 48.8293 25.1068 48.9893 24.8508 49.032H24.4668C24.1254 49.032 23.7734 49.0213 23.4108 49C23.0694 48.9573 22.7281 48.936 22.3868 48.936C22.1521 48.936 21.9174 48.9573 21.6828 49C21.4694 49.0213 21.2454 49.032 21.0108 49.032C20.8614 48.9893 20.7548 48.904 20.6908 48.776C20.6481 48.648 20.6267 48.4987 20.6267 48.328C20.6267 48.0933 20.6481 47.9013 20.6908 47.752C20.7334 47.6027 20.7548 47.4213 20.7548 47.208C20.2428 47.72 19.5921 48.1573 18.8028 48.52C18.0348 48.8827 17.2774 49.064 16.5308 49.064C15.6988 49.064 14.9841 48.776 14.3868 48.2C13.8108 47.624 13.3308 46.9093 12.9468 46.056C12.5628 45.2027 12.2748 44.2747 12.0828 43.272C11.9121 42.2693 11.8268 41.3413 11.8268 40.488C11.8268 39.4213 11.9654 38.44 12.2428 37.544C12.5201 36.648 12.8934 35.88 13.3628 35.24C13.8534 34.5787 14.4294 34.0667 15.0908 33.704C15.7521 33.32 16.4561 33.1173 17.2028 33.096C17.5868 33.096 17.9388 33.1067 18.2588 33.128C18.6001 33.128 18.9094 33.1813 19.1868 33.288C19.4641 33.3733 19.7094 33.5227 19.9228 33.736C20.1361 33.928 20.3174 34.2053 20.4668 34.568C20.4454 34.2267 20.4561 33.9387 20.4988 33.704C20.5628 33.448 20.5948 33.192 20.5948 32.936C20.5948 32.9147 20.6588 32.904 20.7868 32.904C20.9361 32.8827 21.0961 32.8827 21.2668 32.904C21.4374 32.904 21.6081 32.904 21.7788 32.904C21.9494 32.904 22.0668 32.904 22.1308 32.904C22.4934 32.9253 22.9308 32.9467 23.4428 32.968ZM16.8508 38.024C16.3601 38.4293 16.0614 38.8987 15.9548 39.432C15.8694 39.7093 15.8161 39.9973 15.7948 40.296C15.7734 40.5733 15.7628 40.8507 15.7628 41.128C15.7628 42.088 16.0081 42.9093 16.4988 43.592C17.0108 44.2533 17.7148 44.584 18.6108 44.584C19.1441 44.584 19.5388 44.4987 19.7948 44.328C20.0721 44.136 20.2641 43.88 20.3708 43.56C20.4988 43.2187 20.5628 42.8133 20.5628 42.344C20.5841 41.8533 20.5948 41.3093 20.5948 40.712C20.5948 39.9653 20.5841 39.3787 20.5628 38.952C20.5628 38.504 20.5094 38.1627 20.4028 37.928C20.3174 37.6933 20.1574 37.544 19.9228 37.48C19.7094 37.416 19.3788 37.384 18.9308 37.384C18.0561 37.384 17.3628 37.5973 16.8508 38.024ZM31.2295 27.144C31.5922 27.1653 31.9548 27.1547 32.3175 27.112V31.4C32.3175 31.6773 32.3175 31.9653 32.3175 32.264C32.3388 32.5627 32.3495 32.872 32.3495 33.192C33.0108 33.1707 33.7042 33.1387 34.4295 33.096C35.1762 33.0533 36.0935 33 37.1815 32.936C37.3308 33.1067 37.4162 33.3627 37.4375 33.704C37.4588 34.024 37.4588 34.376 37.4375 34.76C37.4162 35.144 37.3842 35.5387 37.3415 35.944C37.3202 36.328 37.3308 36.6587 37.3735 36.936H32.4135C32.4135 38.088 32.4135 39.2187 32.4135 40.328C32.4135 41.416 32.4242 42.44 32.4455 43.4C32.6588 43.6987 32.9682 43.9333 33.3735 44.104C33.7788 44.2747 34.2162 44.4133 34.6855 44.52C35.1548 44.6053 35.6242 44.6587 36.0935 44.68C36.5842 44.7013 37.0108 44.7013 37.3735 44.68C37.4162 44.9787 37.4588 45.3093 37.5015 45.672C37.5442 46.0347 37.5762 46.408 37.5975 46.792C37.6188 47.176 37.6082 47.56 37.5655 47.944C37.5442 48.328 37.4802 48.68 37.3735 49C36.5202 49.0427 35.6348 49.0427 34.7175 49C33.8002 48.936 32.9362 48.808 32.1255 48.616C31.3148 48.424 30.5895 48.136 29.9495 47.752C29.3308 47.368 28.8828 46.8453 28.6055 46.184C28.3282 44.5413 28.1682 42.9947 28.1255 41.544C28.0828 40.072 28.0722 38.5573 28.0935 37C27.7522 37.0213 27.3895 37.032 27.0055 37.032C26.6428 37.032 26.2375 37.032 25.7895 37.032L25.8855 33.128C26.3122 33.1493 26.7068 33.16 27.0695 33.16C27.4535 33.16 27.8162 33.16 28.1575 33.16C28.1575 32.6907 28.1468 32.1893 28.1255 31.656C28.1042 31.1013 28.0935 30.5467 28.0935 29.992C28.0935 29.4373 28.0935 28.904 28.0935 28.392C28.1148 27.88 28.1468 27.4213 28.1895 27.016C28.4668 26.9733 28.7655 26.9627 29.0855 26.984C29.4268 27.0053 29.7788 27.0373 30.1415 27.08C30.5042 27.1013 30.8668 27.1227 31.2295 27.144ZM42.6045 27.144C42.9672 27.1653 43.3298 27.1547 43.6925 27.112V31.4C43.6925 31.6773 43.6925 31.9653 43.6925 32.264C43.7138 32.5627 43.7245 32.872 43.7245 33.192C44.3858 33.1707 45.0792 33.1387 45.8045 33.096C46.5512 33.0533 47.4685 33 48.5565 32.936C48.7058 33.1067 48.7912 33.3627 48.8125 33.704C48.8338 34.024 48.8338 34.376 48.8125 34.76C48.7912 35.144 48.7592 35.5387 48.7165 35.944C48.6952 36.328 48.7058 36.6587 48.7485 36.936H43.7885C43.7885 38.088 43.7885 39.2187 43.7885 40.328C43.7885 41.416 43.7992 42.44 43.8205 43.4C44.0338 43.6987 44.3432 43.9333 44.7485 44.104C45.1538 44.2747 45.5912 44.4133 46.0605 44.52C46.5298 44.6053 46.9992 44.6587 47.4685 44.68C47.9592 44.7013 48.3858 44.7013 48.7485 44.68C48.7912 44.9787 48.8338 45.3093 48.8765 45.672C48.9192 46.0347 48.9512 46.408 48.9725 46.792C48.9938 47.176 48.9832 47.56 48.9405 47.944C48.9192 48.328 48.8552 48.68 48.7485 49C47.8952 49.0427 47.0098 49.0427 46.0925 49C45.1752 48.936 44.3112 48.808 43.5005 48.616C42.6898 48.424 41.9645 48.136 41.3245 47.752C40.7058 47.368 40.2578 46.8453 39.9805 46.184C39.7032 44.5413 39.5432 42.9947 39.5005 41.544C39.4578 40.072 39.4472 38.5573 39.4685 37C39.1272 37.0213 38.7645 37.032 38.3805 37.032C38.0178 37.032 37.6125 37.032 37.1645 37.032L37.2605 33.128C37.6872 33.1493 38.0818 33.16 38.4445 33.16C38.8285 33.16 39.1912 33.16 39.5325 33.16C39.5325 32.6907 39.5218 32.1893 39.5005 31.656C39.4792 31.1013 39.4685 30.5467 39.4685 29.992C39.4685 29.4373 39.4685 28.904 39.4685 28.392C39.4898 27.88 39.5218 27.4213 39.5645 27.016C39.8418 26.9733 40.1405 26.9627 40.4605 26.984C40.8018 27.0053 41.1538 27.0373 41.5165 27.08C41.8792 27.1013 42.2418 27.1227 42.6045 27.144ZM49.3395 35.368C49.4675 34.9627 49.5635 34.6427 49.6275 34.408C49.7768 34.088 50.0115 33.8107 50.3315 33.576C50.6728 33.3413 51.0568 33.1493 51.4835 33C51.9315 32.8293 52.4008 32.712 52.8915 32.648C53.4035 32.584 53.9155 32.552 54.4275 32.552C54.8542 32.5947 55.2595 32.6053 55.6435 32.584C56.0488 32.5413 56.4755 32.5413 56.9235 32.584C57.6062 32.6267 58.2568 32.7653 58.8755 33C59.4942 33.2133 60.0275 33.5333 60.4755 33.96C60.7742 34.152 61.0088 34.4613 61.1795 34.888C61.3502 35.3147 61.4782 35.816 61.5635 36.392C61.6488 36.9467 61.7022 37.5653 61.7235 38.248C61.7448 38.9093 61.7662 39.592 61.7875 40.296C61.7662 40.9147 61.7342 41.6187 61.6915 42.408C61.6702 43.1973 61.6168 43.9547 61.5315 44.68C61.4675 45.4053 61.3715 46.056 61.2435 46.632C61.1368 47.208 60.9768 47.6027 60.7635 47.816C60.4008 48.328 59.9208 48.6907 59.3235 48.904C58.7475 49.1173 58.1182 49.2453 57.4355 49.288C56.7528 49.352 56.0488 49.352 55.3235 49.288C54.5982 49.2453 53.9368 49.224 53.3395 49.224C52.2515 49.032 51.3342 48.5627 50.5875 47.816C50.0115 47.304 49.6168 46.664 49.4035 45.896C49.1902 45.128 49.0622 44.328 49.0195 43.496C48.9768 42.6427 48.9662 41.7893 48.9875 40.936C49.0302 40.0827 49.0195 39.304 48.9555 38.6C48.9555 38.216 48.9662 37.8427 48.9875 37.48C49.0088 37.096 49.0515 36.7013 49.1155 36.296C49.1368 36.0613 49.2115 35.752 49.3395 35.368ZM54.7155 37.48C54.2675 37.608 53.9048 37.8427 53.6275 38.184C53.4995 38.2693 53.4035 38.4827 53.3395 38.824C53.2542 39.5067 53.2115 40.1893 53.2115 40.872C53.2115 41.5333 53.1902 42.2373 53.1475 42.984C53.1262 43.4747 53.2542 43.8587 53.5315 44.136C53.8088 44.392 54.1395 44.5733 54.5235 44.68C54.9288 44.7653 55.3448 44.7867 55.7715 44.744C56.1982 44.68 56.5502 44.5733 56.8275 44.424C57.1902 44.2533 57.4355 43.9013 57.5635 43.368C57.6488 42.6853 57.7128 42.0027 57.7555 41.32C57.8195 40.616 57.7875 39.9547 57.6595 39.336C57.5528 38.5893 57.2435 38.0453 56.7315 37.704C56.2195 37.3627 55.5475 37.288 54.7155 37.48ZM62.6833 35.368C62.8113 34.9627 62.9073 34.6427 62.9713 34.408C63.1206 34.088 63.3553 33.8107 63.6753 33.576C64.0166 33.3413 64.4006 33.1493 64.8273 33C65.2753 32.8293 65.7446 32.712 66.2352 32.648C66.7473 32.584 67.2593 32.552 67.7713 32.552C68.1979 32.5947 68.6033 32.6053 68.9873 32.584C69.3926 32.5413 69.8193 32.5413 70.2673 32.584C70.9499 32.6267 71.6006 32.7653 72.2193 33C72.8379 33.2133 73.3713 33.5333 73.8193 33.96C74.1179 34.152 74.3526 34.4613 74.5233 34.888C74.6939 35.3147 74.8219 35.816 74.9073 36.392C74.9926 36.9467 75.0459 37.5653 75.0673 38.248C75.0886 38.9093 75.1099 39.592 75.1313 40.296C75.1099 40.9147 75.0779 41.6187 75.0353 42.408C75.0139 43.1973 74.9606 43.9547 74.8753 44.68C74.8113 45.4053 74.7153 46.056 74.5873 46.632C74.4806 47.208 74.3206 47.6027 74.1073 47.816C73.7446 48.328 73.2646 48.6907 72.6673 48.904C72.0913 49.1173 71.4619 49.2453 70.7793 49.288C70.0966 49.352 69.3926 49.352 68.6673 49.288C67.9419 49.2453 67.2806 49.224 66.6833 49.224C65.5953 49.032 64.6779 48.5627 63.9313 47.816C63.3553 47.304 62.9606 46.664 62.7473 45.896C62.5339 45.128 62.4059 44.328 62.3633 43.496C62.3206 42.6427 62.3099 41.7893 62.3313 40.936C62.3739 40.0827 62.3633 39.304 62.2993 38.6C62.2993 38.216 62.3099 37.8427 62.3313 37.48C62.3526 37.096 62.3953 36.7013 62.4593 36.296C62.4806 36.0613 62.5553 35.752 62.6833 35.368ZM68.0593 37.48C67.6113 37.608 67.2486 37.8427 66.9713 38.184C66.8433 38.2693 66.7473 38.4827 66.6833 38.824C66.5979 39.5067 66.5553 40.1893 66.5553 40.872C66.5553 41.5333 66.5339 42.2373 66.4913 42.984C66.4699 43.4747 66.5979 43.8587 66.8753 44.136C67.1526 44.392 67.4833 44.5733 67.8673 44.68C68.2726 44.7653 68.6886 44.7867 69.1153 44.744C69.5419 44.68 69.8939 44.5733 70.1713 44.424C70.5339 44.2533 70.7793 43.9013 70.9073 43.368C70.9926 42.6853 71.0566 42.0027 71.0993 41.32C71.1633 40.616 71.1313 39.9547 71.0033 39.336C70.8966 38.5893 70.5873 38.0453 70.0753 37.704C69.5633 37.3627 68.8913 37.288 68.0593 37.48ZM14.432 55.864C14.9867 56.9093 15.1147 58.232 14.816 59.832H14.784C14.0373 59.96 13.2373 60.0453 12.384 60.088C11.5307 60.1093 10.7307 60.0133 9.984 59.8C10.112 59.224 9.99467 58.744 9.632 58.36C9.26933 57.976 8.832 57.7307 8.32 57.624C7.808 57.5173 7.30667 57.5707 6.816 57.784C6.34667 57.9973 6.06933 58.4027 5.984 59C5.94133 59.1493 5.92 59.2987 5.92 59.448C5.94133 59.576 5.96267 59.7147 5.984 59.864C6.15467 60.376 6.432 60.7173 6.816 60.888C7.2 61.0587 7.616 61.176 8.064 61.24C9.19467 61.368 10.24 61.7307 11.2 62.328C12.1813 62.9253 12.9813 63.6827 13.6 64.6C13.984 65.0907 14.272 65.624 14.464 66.2C14.656 66.7547 14.7627 67.3307 14.784 67.928C14.8267 68.5253 14.784 69.1333 14.656 69.752C14.5493 70.3493 14.368 70.9253 14.112 71.48C13.856 72.1413 13.5147 72.7067 13.088 73.176C12.6613 73.6453 12.1707 74.0293 11.616 74.328C11.0827 74.6267 10.496 74.8507 9.856 75C9.23733 75.128 8.59733 75.1813 7.936 75.16C6.99733 75.1387 6.05867 74.9787 5.12 74.68C4.20267 74.36 3.38133 73.9227 2.656 73.368C1.93067 72.8133 1.35467 72.1413 0.928 71.352C0.501333 70.5413 0.32 69.624 0.384 68.6V68.504V68.408C1.13067 68.3013 1.952 68.28 2.848 68.344C3.744 68.3867 4.55467 68.3973 5.28 68.376C5.32267 69.0587 5.58933 69.5707 6.08 69.912C6.592 70.2533 7.12533 70.424 7.68 70.424C8.256 70.4027 8.74667 70.2107 9.152 69.848C9.57867 69.4853 9.728 68.9307 9.6 68.184C9.536 67.672 9.344 67.2667 9.024 66.968C8.704 66.648 8.32 66.392 7.872 66.2C7.44533 66.008 6.976 65.8693 6.464 65.784C5.952 65.6773 5.472 65.5813 5.024 65.496C4.59733 65.4107 4.20267 65.272 3.84 65.08C3.47733 64.888 3.14667 64.664 2.848 64.408C1.86667 63.4693 1.22667 62.4347 0.928 61.304C0.650667 60.1733 0.64 59.0747 0.896 58.008C1.152 56.9413 1.632 55.9707 2.336 55.096C3.06133 54.2213 3.936 53.5707 4.96 53.144C5.472 52.9307 6.03733 52.792 6.656 52.728C7.27467 52.6427 7.89333 52.6213 8.512 52.664C9.152 52.6853 9.77067 52.7707 10.368 52.92C10.9867 53.0693 11.552 53.2613 12.064 53.496C13.088 54.0293 13.8773 54.8187 14.432 55.864ZM19.8753 59.928C19.8753 60.376 19.8753 60.6427 19.8753 60.728C19.9819 60.664 20.1099 60.5893 20.2593 60.504C20.4299 60.4187 20.5686 60.3333 20.6753 60.248C21.1233 59.928 21.6246 59.672 22.1793 59.48C22.7339 59.288 23.2993 59.1813 23.8753 59.16C24.4726 59.1387 25.0486 59.2027 25.6033 59.352C26.1579 59.5013 26.6593 59.768 27.1073 60.152C27.3206 60.344 27.4806 60.7493 27.5873 61.368C27.7153 61.9653 27.7899 62.6907 27.8113 63.544C27.8539 64.3973 27.8646 65.336 27.8433 66.36C27.8433 67.3627 27.8326 68.3867 27.8113 69.432C27.7899 70.456 27.7686 71.448 27.7473 72.408C27.7259 73.368 27.7366 74.2107 27.7793 74.936C27.0326 75.0427 26.3606 75.0853 25.7633 75.064C25.1873 75.064 24.5259 75.064 23.7793 75.064C23.7366 74.5733 23.7153 74.0187 23.7153 73.4C23.7153 72.7813 23.7153 72.1413 23.7153 71.48C23.7366 70.8187 23.7366 70.1573 23.7153 69.496C23.7153 68.8347 23.6939 68.216 23.6513 67.64C23.6299 67.384 23.6086 67.1067 23.5873 66.808C23.5659 66.488 23.5233 66.1787 23.4593 65.88C23.4166 65.5813 23.3419 65.3147 23.2353 65.08C23.1499 64.8453 23.0219 64.664 22.8513 64.536C22.8299 64.5147 22.8086 64.504 22.7873 64.504C22.7659 64.504 22.7446 64.4933 22.7233 64.472C22.5526 64.3867 22.2966 64.3227 21.9553 64.28C21.6353 64.216 21.3153 64.2373 20.9953 64.344C20.6753 64.4293 20.3873 64.6213 20.1313 64.92C19.8753 65.1973 19.7259 65.624 19.6833 66.2C19.6406 66.9467 19.6299 67.6827 19.6513 68.408C19.6726 69.112 19.6939 69.8267 19.7153 70.552C19.7579 71.256 19.7793 71.96 19.7793 72.664C19.7793 73.368 19.7366 74.072 19.6513 74.776V74.904C19.2886 75.0107 18.9686 75.0747 18.6913 75.096C18.4353 75.1173 18.1686 75.1173 17.8913 75.096C17.6139 75.096 17.3046 75.0853 16.9633 75.064C16.6219 75.0427 16.1953 75.0533 15.6833 75.096C15.6833 74.2213 15.6726 73.176 15.6513 71.96C15.6513 70.7227 15.6406 69.4 15.6193 67.992C15.6193 66.584 15.6193 65.1333 15.6193 63.64C15.6193 62.1253 15.6193 60.6533 15.6193 59.224C15.6193 57.7947 15.6193 56.4507 15.6193 55.192C15.6406 53.912 15.6619 52.8027 15.6833 51.864C15.9393 51.8853 16.1526 51.9067 16.3233 51.928C16.4939 51.928 16.6539 51.928 16.8033 51.928C16.9526 51.928 17.1126 51.928 17.2833 51.928C17.4539 51.9067 17.6673 51.8853 17.9233 51.864C18.0086 51.864 18.1579 51.8533 18.3713 51.832C18.5846 51.7893 18.7979 51.7573 19.0113 51.736C19.2246 51.7147 19.4166 51.7147 19.5873 51.736C19.7579 51.736 19.8433 51.768 19.8433 51.832C19.8646 51.9387 19.8753 52.2267 19.8753 52.696C19.8753 53.144 19.8753 53.688 19.8753 54.328C19.8753 54.9467 19.8753 55.6187 19.8753 56.344C19.8753 57.048 19.8753 57.7093 19.8753 58.328C19.8753 58.9467 19.8753 59.48 19.8753 59.928ZM29.027 61.368C29.155 60.9627 29.251 60.6427 29.315 60.408C29.4643 60.088 29.699 59.8107 30.019 59.576C30.3603 59.3413 30.7443 59.1493 31.171 59C31.619 58.8293 32.0883 58.712 32.579 58.648C33.091 58.584 33.603 58.552 34.115 58.552C34.5417 58.5947 34.947 58.6053 35.331 58.584C35.7363 58.5413 36.163 58.5413 36.611 58.584C37.2937 58.6267 37.9443 58.7653 38.563 59C39.1817 59.2133 39.715 59.5333 40.163 59.96C40.4617 60.152 40.6963 60.4613 40.867 60.888C41.0377 61.3147 41.1657 61.816 41.251 62.392C41.3363 62.9467 41.3897 63.5653 41.411 64.248C41.4323 64.9093 41.4537 65.592 41.475 66.296C41.4537 66.9147 41.4217 67.6187 41.379 68.408C41.3577 69.1973 41.3043 69.9547 41.219 70.68C41.155 71.4053 41.059 72.056 40.931 72.632C40.8243 73.208 40.6643 73.6027 40.451 73.816C40.0883 74.328 39.6083 74.6907 39.011 74.904C38.435 75.1173 37.8057 75.2453 37.123 75.288C36.4403 75.352 35.7363 75.352 35.011 75.288C34.2857 75.2453 33.6243 75.224 33.027 75.224C31.939 75.032 31.0217 74.5627 30.275 73.816C29.699 73.304 29.3043 72.664 29.091 71.896C28.8777 71.128 28.7497 70.328 28.707 69.496C28.6643 68.6427 28.6537 67.7893 28.675 66.936C28.7177 66.0827 28.707 65.304 28.643 64.6C28.643 64.216 28.6537 63.8427 28.675 63.48C28.6963 63.096 28.739 62.7013 28.803 62.296C28.8243 62.0613 28.899 61.752 29.027 61.368ZM34.403 63.48C33.955 63.608 33.5923 63.8427 33.315 64.184C33.187 64.2693 33.091 64.4827 33.027 64.824C32.9417 65.5067 32.899 66.1893 32.899 66.872C32.899 67.5333 32.8777 68.2373 32.835 68.984C32.8137 69.4747 32.9417 69.8587 33.219 70.136C33.4963 70.392 33.827 70.5733 34.211 70.68C34.6163 70.7653 35.0323 70.7867 35.459 70.744C35.8857 70.68 36.2377 70.5733 36.515 70.424C36.8777 70.2533 37.123 69.9013 37.251 69.368C37.3363 68.6853 37.4003 68.0027 37.443 67.32C37.507 66.616 37.475 65.9547 37.347 65.336C37.2403 64.5893 36.931 64.0453 36.419 63.704C35.907 63.3627 35.235 63.288 34.403 63.48ZM46.5948 80.152C46.5948 80.3867 46.5841 80.7173 46.5628 81.144V81.496C46.5628 81.5173 46.4134 81.5387 46.1148 81.56C45.8374 81.6027 45.4854 81.624 45.0588 81.624C44.6534 81.6453 44.2161 81.6453 43.7468 81.624C43.2774 81.624 42.8721 81.592 42.5308 81.528V79.416C42.5308 77.6453 42.5094 75.8747 42.4668 74.104C42.4241 72.3333 42.3814 70.5947 42.3388 68.888C42.3174 67.16 42.2961 65.4747 42.2747 63.832C42.2747 62.168 42.2961 60.568 42.3388 59.032C43.0001 59.032 43.7254 59.0213 44.5148 59C45.3041 58.9573 46.0188 58.9787 46.6588 59.064C46.6801 59.1067 46.6908 59.1813 46.6908 59.288C46.6908 59.5013 46.6908 59.672 46.6908 59.8C46.7121 59.928 46.7228 60.1093 46.7228 60.344C46.7654 60.4507 46.8081 60.536 46.8508 60.6C46.9148 60.6427 46.9788 60.6 47.0428 60.472C47.3628 59.832 47.7894 59.4267 48.3228 59.256C48.8561 59.064 49.4214 59.0107 50.0188 59.096C51.2348 59.1813 52.1948 59.5013 52.8988 60.056C53.6028 60.5893 54.1254 61.2827 54.4668 62.136C54.8294 62.968 55.0641 63.9067 55.1708 64.952C55.2774 65.9973 55.3521 67.0533 55.3948 68.12C55.3948 68.8667 55.3414 69.592 55.2348 70.296C55.1494 71 55.0001 71.6507 54.7868 72.248C54.5948 72.824 54.3281 73.3253 53.9868 73.752C53.6668 74.1573 53.2721 74.4453 52.8028 74.616C52.2268 74.8293 51.5868 74.9573 50.8828 75C50.2001 75.064 49.5494 75.064 48.9308 75C48.3121 74.9573 47.7894 74.8613 47.3628 74.712C46.9361 74.5627 46.7014 74.392 46.6588 74.2C46.6801 75.2027 46.6908 76.0133 46.6908 76.632C46.6908 77.2507 46.6908 77.7413 46.6908 78.104C46.6908 78.488 46.6801 78.776 46.6588 78.968C46.6588 79.1813 46.6481 79.3733 46.6268 79.544C46.6268 79.736 46.6161 79.9387 46.5948 80.152ZM50.5628 70.776C51.0961 70.392 51.4161 69.8267 51.5228 69.08C51.6294 68.7813 51.6934 68.472 51.7148 68.152C51.7361 67.832 51.7468 67.5227 51.7468 67.224C51.7468 66.6907 51.6828 66.1787 51.5548 65.688C51.4268 65.176 51.2348 64.728 50.9788 64.344C50.7228 63.9387 50.4134 63.6187 50.0508 63.384C49.6881 63.1493 49.2828 63.032 48.8348 63.032C48.2801 63.032 47.8534 63.1493 47.5548 63.384C47.2561 63.6187 47.0214 63.9387 46.8508 64.344C46.7014 64.7493 46.6054 65.24 46.5628 65.816C46.5414 66.392 46.5308 67.0107 46.5308 67.672C46.5308 68.504 46.5414 69.1653 46.5628 69.656C46.6054 70.1253 46.6908 70.488 46.8188 70.744C46.9468 71 47.1388 71.1707 47.3948 71.256C47.6721 71.32 48.0348 71.352 48.4828 71.352C49.3574 71.352 50.0508 71.16 50.5628 70.776Z" fill="white"/>
<path d="M100.092 19.512C100.092 19.7253 100.103 19.9173 100.124 20.088C100.167 20.856 100.188 21.4427 100.188 21.848C100.188 22.232 100.156 22.52 100.092 22.712C100.049 22.8827 99.964 22.9787 99.836 23C99.708 23 99.5267 23 99.292 23C99.0573 22.9787 98.748 22.9787 98.364 23C98.0013 23.0213 97.372 23.0427 96.476 23.064C95.6013 23.0853 94.3853 23.096 92.828 23.096C91.292 23.096 89.2333 23.0747 86.652 23.032V22.456C86.716 20.856 86.7693 19.416 86.812 18.136C86.8547 16.8347 86.876 15.6293 86.876 14.52C86.8973 13.3893 86.908 12.3013 86.908 11.256C86.908 10.2107 86.8973 9.144 86.876 8.056C86.8547 6.968 86.8333 5.816 86.812 4.6C86.7907 3.36267 86.7693 1.99733 86.748 0.504C86.9613 0.418666 87.292 0.354666 87.74 0.311998C88.188 0.247999 88.668 0.216 89.18 0.216C89.692 0.216 90.1933 0.247999 90.684 0.311998C91.1747 0.375999 91.5693 0.471999 91.868 0.599998C91.8253 1.98667 91.804 3.416 91.804 4.888C91.8253 6.33867 91.8467 7.8 91.868 9.272C91.8893 10.744 91.9 12.216 91.9 13.688C91.9213 15.1387 91.9213 16.5467 91.9 17.912V17.944C92.0493 17.9013 92.3267 17.8907 92.732 17.912C93.1587 17.912 93.6493 17.9227 94.204 17.944C94.7587 17.9653 95.3453 17.9973 95.964 18.04C96.604 18.0613 97.2013 18.0827 97.756 18.104C98.332 18.1253 98.8333 18.1467 99.26 18.168C99.708 18.168 100.017 18.1573 100.188 18.136C100.188 18.3707 100.177 18.6053 100.156 18.84C100.135 19.0533 100.113 19.2773 100.092 19.512ZM108.242 22.072C108.263 21.8373 108.263 21.5707 108.242 21.272C108.135 21.336 107.997 21.4107 107.826 21.496C107.677 21.5813 107.549 21.6667 107.442 21.752C106.994 22.072 106.493 22.328 105.938 22.52C105.383 22.712 104.807 22.8187 104.21 22.84C103.634 22.8613 103.069 22.7973 102.514 22.648C101.959 22.4987 101.458 22.232 101.01 21.848C100.797 21.656 100.626 21.2613 100.498 20.664C100.391 20.0453 100.317 19.3093 100.274 18.456C100.253 17.6027 100.242 16.6747 100.242 15.672C100.263 14.648 100.285 13.624 100.306 12.6C100.327 11.5547 100.349 10.552 100.37 9.592C100.391 8.632 100.381 7.78933 100.338 7.064C101.085 6.95733 101.746 6.91467 102.322 6.936C102.919 6.936 103.591 6.936 104.338 6.936C104.381 7.42667 104.402 7.98133 104.402 8.6C104.402 9.21867 104.391 9.85867 104.37 10.52C104.37 11.1813 104.37 11.8427 104.37 12.504C104.391 13.1653 104.423 13.784 104.466 14.36C104.487 14.616 104.509 14.904 104.53 15.224C104.551 15.5227 104.583 15.8213 104.626 16.12C104.69 16.4187 104.765 16.6853 104.85 16.92C104.957 17.1547 105.095 17.336 105.266 17.464C105.287 17.4853 105.309 17.496 105.33 17.496C105.351 17.496 105.373 17.5067 105.394 17.528C105.565 17.6133 105.81 17.688 106.13 17.752C106.471 17.7947 106.802 17.7733 107.122 17.688C107.442 17.5813 107.73 17.3893 107.986 17.112C108.242 16.8133 108.391 16.376 108.434 15.8C108.477 15.0747 108.487 14.3493 108.466 13.624C108.445 12.8987 108.413 12.184 108.37 11.48C108.349 10.7547 108.327 10.04 108.306 9.336C108.306 8.632 108.359 7.928 108.466 7.224V7.096C108.829 6.98933 109.138 6.92533 109.394 6.904C109.671 6.88267 109.949 6.88267 110.226 6.904C110.503 6.904 110.813 6.91467 111.154 6.936C111.495 6.95733 111.922 6.94667 112.434 6.904C112.434 9.528 112.455 12.152 112.498 14.776C112.562 17.4 112.551 20.12 112.466 22.936C112.21 22.9147 111.997 22.904 111.826 22.904C111.655 22.8827 111.495 22.872 111.346 22.872C111.197 22.872 111.037 22.8827 110.866 22.904C110.695 22.904 110.482 22.9147 110.226 22.936C110.141 22.936 109.991 22.9573 109.778 23C109.565 23.0213 109.351 23.0427 109.138 23.064C108.925 23.0853 108.733 23.0853 108.562 23.064C108.391 23.064 108.306 23.032 108.306 22.968C108.263 22.6053 108.242 22.3067 108.242 22.072ZM125.84 7.064C126.224 7.04267 126.459 7.05333 126.544 7.096C126.544 7.90667 126.523 8.65333 126.48 9.336C126.438 9.99733 126.459 10.68 126.544 11.384C125.456 12.5573 124.272 13.7413 122.992 14.936C121.712 16.1093 120.528 17.304 119.44 18.52C120.507 18.4347 121.638 18.424 122.832 18.488C124.048 18.552 125.232 18.4987 126.384 18.328C126.384 19.0107 126.395 19.736 126.416 20.504C126.438 21.272 126.448 22.0293 126.448 22.776C125.467 22.7973 124.422 22.8187 123.312 22.84C122.224 22.8613 121.115 22.8827 119.984 22.904C118.854 22.9253 117.734 22.9467 116.624 22.968C115.515 22.968 114.448 22.968 113.424 22.968C113.446 22.3493 113.446 21.848 113.424 21.464C113.424 21.08 113.414 20.7493 113.392 20.472C113.371 20.1947 113.35 19.9387 113.328 19.704C113.328 19.4693 113.339 19.192 113.36 18.872C113.872 18.2107 114.438 17.5707 115.056 16.952C115.675 16.312 116.315 15.6933 116.976 15.096C117.638 14.4773 118.288 13.8693 118.928 13.272C119.568 12.6533 120.155 12.024 120.688 11.384C120.134 11.4053 119.536 11.4267 118.896 11.448C118.256 11.4693 117.616 11.5013 116.976 11.544C116.336 11.5867 115.718 11.64 115.12 11.704C114.544 11.768 114.022 11.832 113.552 11.896C113.51 11.32 113.488 10.8293 113.488 10.424C113.488 10.0187 113.488 9.656 113.488 9.336C113.51 8.99467 113.531 8.65333 113.552 8.312C113.574 7.97067 113.574 7.56533 113.552 7.096C115.28 7.096 116.902 7.096 118.416 7.096C119.952 7.07467 121.296 7.064 122.448 7.064C122.619 7.10667 122.907 7.128 123.312 7.128C123.739 7.10667 124.176 7.096 124.624 7.096C125.072 7.07467 125.478 7.064 125.84 7.064Z" fill="#FFD911"/>
</svg>
